<svg xmlns="http://www.w3.org/2000/svg" viewBox="0 0 48 48" id="Alarm-Bell--Streamline-Ultimate" height="48" width="48" class="h-[20px] w-[20px]"><g><path d="M42 35a3 3 0 0 1 -3 -3v-9.72A16 16 0 0 0 26 6.14V2a2 2 0 0 0 -4 0v4.14a16 16 0 0 0 -13 16.14V32A3 3 0 0 1 6 35a2 2 0 0 0 0 4h36a2 2 0 0 0 0 -4Z" fill="currentColor" stroke-width="1"></path><path d="M28.48 42H19.52a0.5 0.5 0 0 0 -0.48 0.44 5.28 5.28 0 0 0 0 0.56 5 5 0 0 0 10 0 5.28 5.28 0 0 0 0 -0.56 0.5 0.5 0 0 0 -0.56 -0.44Z" fill="currentColor" stroke-width="1"></path></g></svg>